<svg width="37" height="38" viewBox="0 0 37 38" fill="none" xmlns="http://www.w3.org/2000/svg">
<path d="M6.13959 4.0495V34.7475L9.20938 33.2126L12.2792 34.7475L15.349 33.2126L18.4188 34.7475L21.4886 33.2126L24.5584 34.7475L27.6282 33.2126L30.698 34.7475V4.0495L27.6282 5.5844L24.5584 4.0495L21.4886 5.5844L18.4188 4.0495L15.349 5.5844L12.2792 4.0495L9.20938 5.5844L6.13959 4.0495Z" stroke="black" stroke-width="3.0698" stroke-linecap="round" stroke-linejoin="round"/>
<path d="M24.5584 13.2589H15.349C14.5349 13.2589 13.7541 13.5823 13.1784 14.158C12.6027 14.7337 12.2792 15.5145 12.2792 16.3287C12.2792 17.1428 12.6027 17.9237 13.1784 18.4994C13.7541 19.075 14.5349 19.3985 15.349 19.3985H21.4886C22.3028 19.3985 23.0836 19.7219 23.6593 20.2976C24.235 20.8733 24.5584 21.6541 24.5584 22.4683C24.5584 23.2824 24.235 24.0632 23.6593 24.6389C23.0836 25.2146 22.3028 25.5381 21.4886 25.5381H12.2792" stroke="black" stroke-width="3.0698" stroke-linecap="round" stroke-linejoin="round"/>
<path d="M18.4188 27.073V11.724" stroke="black" stroke-width="3.0698" stroke-linecap="round" stroke-linejoin="round"/>
</svg>
