<?xml version="1.0" encoding="UTF-8"?>
<svg id="Layer_1" data-name="Layer 1" xmlns="http://www.w3.org/2000/svg" viewBox="0 0 960 200">
  <defs>
    <style>
      .cls-1 {
        fill: #0d1b2a;
      }
    </style>
  </defs>
  <path class="cls-1" d="m57.07,162.64c-3.7,5.92-7.4,11.84-11.1,17.76-3.21,4.69-8.88,9.86-16.77,9.86-11.59,0-17.76-8.88-17.76-17.26,0-2.47.49-4.93,1.73-7.4.99-1.97,2.22-3.7,3.45-5.67,1.97-3.95,4.69-7.4,6.91-11.34,6.9-10.36,13.32-21.21,19.73-31.81,12.33-21.21,23.67-42.91,35.27-64.61,3.95-6.91,8.14-13.56,11.1-20.96,2.71-6.91,9.86-12.08,18.99-12.08,2.96,0,5.67.49,8.63.49,6.66,0,13.07-.99,19.48-1.97.99-.25,2.22-.25,3.21-.25,9.62,0,14.8,7.15,17.26,12.58,4.19,9.62,9.12,18.99,14.06,27.87,9.86,17.76,19.73,35.02,29.84,52.77,9.37,16.52,17.02,33.79,26.39,50.31,1.23,1.73,2.22,3.21,2.71,4.69.99,1.97,1.23,3.95,1.23,6.17,0,7.4-5.18,16.52-16.28,16.52-7.4,0-11.1-.99-15.78-6.66-4.19-4.93-7.15-11.1-10.11-16.77h-4.44c-4.69,0-9.12-.49-13.81-.49-9.62-.25-19.24-.25-28.85-.74-19.73-.74-39.21-.49-58.69-.99-8.63,0-17.26-.74-25.89-.74,0,.25-.25.49-.49.74Zm21.46-37.49c-.49,1.23-1.23,2.22-1.73,3.45,20.22.49,40.44.25,60.67.99,7.4.25,14.8.99,22.44.99h12.08c-4.44-7.4-8.63-14.8-12.58-22.19-6.66-11.1-14.06-22.94-20.22-34.28-.74-1.97-3.45-7.15-6.17-12.33-.99-2.71-2.22-5.18-3.21-7.15-.49-.74-.74-1.23-1.23-1.97-1.48,0-3.95,0-6.17.25h-3.7c-12.82,24.66-26.63,48.34-40.2,72.26Z"/>
  <path class="cls-1" d="m363.85,183.11c-4.44.49-9.12.99-13.32.99-4.19.25-8.63.25-12.58.25-13.56.74-27.13.74-40.69.74h-20.47c-4.69,0-9.37.25-14.06.25-9.12,0-18-7.15-18-15.54,0-7.89.25-16.03-.25-24.17-.74-9.37-.74-18.25-.74-27.62,0-16.03-.25-32.31.25-48.09.25-8.39,1.23-16.52,1.23-24.91,0-2.47-.25-5.43-.25-8.14,0-8.14,5.18-18.99,18.25-18.99,11.34,0,22.44.25,34.03.25h19.98c48.58,0,94.95,2.71,123.06,49.32,6.66,10.85,10.85,21.21,10.85,33.79,0,15.29-4.93,35.27-17.02,47.6-21.46,22.44-41.18,29.35-70.28,34.28Zm-52.77-32.06c9.86,0,19.98-.25,29.84-.25,3.95,0,7.89-.99,11.84-.99,3.45,0,7.15-.74,10.85-1.23,18-2.96,25.89-7.4,39.7-18.25,8.38-6.41,11.84-18,11.84-28.61,0-2.71-.49-5.92-1.23-8.63-6.41-18.25-22.44-32.8-43.65-36.99-6.41-1.23-13.56-1.73-20.22-2.47-19.73-1.97-39.21-2.47-59.19-2.47-3.21,0-6.41,0-9.62.25-.25,4.93-.25,9.62-.49,14.3-.25,3.95-.49,7.65-.49,11.84,0,3.7.49,7.65.49,11.34,0,8.38-.99,16.77-.99,24.91,0,9.37.49,18.74.74,27.87,0,3.21,0,6.41.25,9.37h30.33Z"/>
  <path class="cls-1" d="m468.9,159.93c1.23-14.3,1.48-28.61,2.22-43.16.99-17.51,2.22-34.77,2.22-52.28,0-7.4-.74-15.04-.74-22.69,0-4.19,0-8.63.74-12.82,1.48-9.37,11.34-16.03,21.7-16.03,2.47,0,16.77,1.48,19.48,1.97,8.14,1.23,14.8,5.18,19.24,11.1,16.28,20.47,29.59,42.91,42.17,65.11,5.92,9.62,11.59,19.48,17.26,29.35,4.69-5.43,8.63-11.59,12.58-17.51,9.12-12.82,18-25.65,26.88-38.72,7.65-10.85,14.55-21.95,22.69-32.55,3.45-5.92,9.12-10.11,15.78-11.59,1.97-.49,4.19-.49,6.41-.74h6.41c3.95-.25,7.4-.74,11.1-.74,16.52,0,19.98,12.82,19.98,26.14.25,17.26.49,34.28.99,51.79h.49v19.24c0,7.89.74,15.78.74,23.67v16.52c-.25,3.95-.25,7.4-.49,10.11,0,1.73,0,2.96-.25,3.7v1.23c-.25.49-.25.99-.49,1.73l-6.17-3.45c5.43,10.36-1.48,16.03-11.1,16.03-14.3,0-18.25-10.6-18.25-22.69,0-34.77-.99-69.3-1.23-103.82-9.37,13.81-18.74,27.87-28.36,41.68-6.9,10.36-14.55,20.22-21.46,30.58-1.73,2.71-4.19,6.41-6.66,10.36-2.47,3.45-5.18,7.4-7.65,9.62-2.71,2.47-5.92,3.45-8.88,3.95-.99.25-2.47.25-3.7.25h-4.19c-4.44,0-8.88-.25-13.32-.25-7.4,0-12.33-2.71-16.03-7.89-6.91-8.88-11.84-19.24-17.76-28.61-10.6-17.26-20.47-34.77-31.81-51.79-3.21-5.18-6.66-10.36-10.6-15.29,0,7.15.25,14.06.25,21.21,0,15.54-1.23,31.07-1.97,46.61l-1.73,38.47c0,13.56-1.48,32.55-19.24,32.55-9.12,0-16.52-6.66-17.76-13.81-.25-1.97-.25-4.19-.25-6.17,0-3.45.49-6.91.74-10.36Z"/>
  <path class="cls-1" d="m775.19,162.64c-3.7,5.92-7.4,11.84-11.1,17.76-3.21,4.69-8.88,9.86-16.77,9.86-11.59,0-17.76-8.88-17.76-17.26,0-2.47.49-4.93,1.73-7.4.99-1.97,2.22-3.7,3.45-5.67,1.97-3.95,4.69-7.4,6.91-11.34,6.91-10.36,13.32-21.21,19.73-31.81,12.33-21.21,23.67-42.91,35.27-64.61,3.95-6.91,8.14-13.56,11.1-20.96,2.71-6.91,9.86-12.08,18.99-12.08,2.96,0,5.67.49,8.63.49,6.66,0,13.07-.99,19.48-1.97.99-.25,2.22-.25,3.21-.25,9.62,0,14.8,7.15,17.26,12.58,4.19,9.62,9.12,18.99,14.06,27.87,9.86,17.76,19.73,35.02,29.84,52.77,9.37,16.52,17.02,33.79,26.39,50.31,1.23,1.73,2.22,3.21,2.71,4.69.99,1.97,1.23,3.95,1.23,6.17,0,7.4-5.18,16.52-16.28,16.52-7.4,0-11.1-.99-15.78-6.66-4.19-4.93-7.15-11.1-10.11-16.77h-4.44c-4.69,0-9.12-.49-13.81-.49-9.62-.25-19.24-.25-28.85-.74-19.73-.74-39.21-.49-58.69-.99-8.63,0-17.26-.74-25.89-.74,0,.25-.25.49-.49.74Zm21.46-37.49c-.49,1.23-1.23,2.22-1.73,3.45,20.22.49,40.44.25,60.67.99,7.4.25,14.8.99,22.44.99h12.08c-4.44-7.4-8.63-14.8-12.58-22.19-6.66-11.1-14.06-22.94-20.22-34.28-.74-1.97-3.45-7.15-6.17-12.33-.99-2.71-2.22-5.18-3.21-7.15-.49-.74-.74-1.23-1.23-1.97-1.48,0-3.95,0-6.17.25h-3.7c-12.82,24.66-26.63,48.34-40.2,72.26Z"/>
</svg>