<svg width="36" height="36" viewBox="0 0 36 36" fill="none" xmlns="http://www.w3.org/2000/svg">
<path d="M27.1789 29.2005C27.1789 26.8772 26.256 24.649 24.6131 23.0061C22.9703 21.3633 20.7421 20.4404 18.4188 20.4404C16.0954 20.4404 13.8673 21.3633 12.2244 23.0061C10.5816 24.649 9.65863 26.8772 9.65863 29.2005" stroke="black" stroke-width="2.92005" stroke-linecap="round" stroke-linejoin="round"/>
<path d="M18.4188 20.4404C21.6442 20.4404 24.2589 17.8257 24.2589 14.6003C24.2589 11.3749 21.6442 8.76015 18.4188 8.76015C15.1934 8.76015 12.5787 11.3749 12.5787 14.6003C12.5787 17.8257 15.1934 20.4404 18.4188 20.4404Z" stroke="black" stroke-width="2.92005" stroke-linecap="round" stroke-linejoin="round"/>
<path d="M18.4188 32.1206C26.4823 32.1206 33.0191 25.5838 33.0191 17.5203C33.0191 9.45681 26.4823 2.92005 18.4188 2.92005C10.3553 2.92005 3.81854 9.45681 3.81854 17.5203C3.81854 25.5838 10.3553 32.1206 18.4188 32.1206Z" stroke="black" stroke-width="2.92005" stroke-linecap="round" stroke-linejoin="round"/>
</svg>
